<?xml version="1.0" encoding="utf-8"?>
<!-- Generator: Adobe Illustrator 26.0.1, SVG Export Plug-In . SVG Version: 6.00 Build 0)  -->
<svg version="1.1" id="Layer_1" xmlns="http://www.w3.org/2000/svg" xmlns:xlink="http://www.w3.org/1999/xlink" x="0px" y="0px"
	 viewBox="0 0 438.7 624" style="enable-background:new 0 0 438.7 624;" xml:space="preserve">
<style type="text/css">
	.st0{fill:none;stroke:#000000;stroke-width:4;stroke-miterlimit:10;}
</style>
<path d="M254.3,550.6c-0.4-5.2,3.1-7.3,6.3-9.2c10.8-6.5,22.8-7.5,35-6.5c5.9,0.5,10,4.3,12.3,9.4c2.4,5.2,4.6,10.6,5.7,16.1
	c1.6,8.1,5.3,14.7,11.7,19.9c1.5,1.2,2.8,2.7,4.3,4.3c-9.8,9.9-19.5,19.7-29.5,29.7c-6-6.4-14-7.8-22.2-9.1
	c-6.9-1.1-12.8-5-18.9-8.4c-3.1-1.7-4.9-4-5.5-7.4c-1.1-5.8-2-11.6-3.2-17.4c-0.4-2-0.9-4.2-2.1-5.8c-3.4-4.4-7.1-8.6-10.8-13
	c-0.9,0.4-1.7,0.7-2.5,1.1c-13.1,6.2-28.4,1.7-36.1-10.4c-7.5-11.9-5-27.6,5.9-36.7c9.9-8.3,24.3-8.5,35-0.5
	c10.1,7.5,14,21.8,8.7,33.4c-1,2.3-0.8,3.7,1,5.3C251,546.8,252.4,548.6,254.3,550.6z M234.5,550.3c-1.2-2.9-2.9-3.1-5.7-2.2
	c-8.7,3-18.5-0.7-23.3-8.4c-5-8-4-18.1,2.4-24.9c6.1-6.5,16.5-8,24.3-3.4c8.3,4.8,12.3,14.2,9.8,23.3c-0.8,2.9-0.6,3.3,2.4,5
	c5.4-9.7,2.2-23.3-7.1-30.4c-9.9-7.4-23.7-6.5-32.4,2.3c-8.7,8.8-9.5,22.7-2,32.4C210.6,553.5,224.1,556.3,234.5,550.3z
	 M228.8,543.8c-2.2-3-2.2-3-4.8-2.7c-7,0.9-13.4-4.1-14.2-11c-0.8-7.1,4.5-13.4,11.6-14c7-0.5,13.3,4.8,13.4,11.9
	c0,2.8,1.3,4.2,3.2,5.5c2.8-6-0.1-14.3-6.5-18.5c-6.6-4.4-16-3-21.5,3.2c-5.4,6.1-5.2,15.4,0.3,21.9
	C214.8,545.2,223.6,547,228.8,543.8z M213.9,526.5c-1.5,5.5,3.1,11.5,8.1,10.5C219.4,533.5,216.7,530.1,213.9,526.5z M221.6,519.9
	c3.1,2.2,5.9,4.2,9,6.4C229.2,522,226.4,520,221.6,519.9z"/>
<polygon class="st0" points="301.8,16.7 133.4,16.7 14.3,121.6 14.3,269.9 133.4,374.8 301.8,374.8 420.8,269.9 420.8,121.6 "/>
<line class="st0" x1="420.8" y1="269.9" x2="217.6" y2="523.8"/>
<line class="st0" x1="14.3" y1="269.9" x2="217.6" y2="523.8"/>
<line class="st0" x1="301.8" y1="374.8" x2="217.6" y2="523.8"/>
<line class="st0" x1="133.4" y1="374.8" x2="217.6" y2="523.8"/>
<polygon class="st0" points="270.9,43.7 164.2,43.7 88.7,118.6 88.7,224.5 164.2,299.4 270.9,299.4 346.4,224.5 346.4,118.6 "/>
<line class="st0" x1="164.2" y1="299.4" x2="133.4" y2="374.8"/>
<line class="st0" x1="270.9" y1="299.4" x2="301.8" y2="374.8"/>
<line class="st0" x1="346.4" y1="224.5" x2="420.8" y2="269.9"/>
<line class="st0" x1="346.4" y1="118.6" x2="420.8" y2="121.6"/>
<line class="st0" x1="270.9" y1="43.7" x2="301.8" y2="16.7"/>
<line class="st0" x1="164.2" y1="43.7" x2="133.4" y2="16.7"/>
<line class="st0" x1="88.7" y1="118.6" x2="14.3" y2="121.6"/>
<line class="st0" x1="88.7" y1="224.5" x2="14.3" y2="269.9"/>
<g>
	<g>
		<path d="M188,197.5h-6.3c0-1,0.3-3.3,0.7-4.6c-2.3,4.1-5.8,5.4-9,5.4c-8.6,0-10-7.1-7.9-16.9l5.9-27.6c2.1-10,5.5-16,15.1-15.9
			c11.6,0.1,12.1,9.1,10.8,15.4l-0.3,1.3h-7.8l0.3-1.7c0.8-4.6,0.6-8.2-3.7-8.2c-3.1,0-4.9,1.9-6.4,8.8l-6,28.6
			c-1.3,5.9-1,9.6,3.1,9.6c4.5,0,6.1-4.1,7.9-12.3l1.5-7.4H180l1.4-6.8h13.5L188,197.5z"/>
		<path d="M221.8,169.7h-12.6l-4.3,20.7H220l-2.5,7.1h-21.9l12.5-58.8h21l-1.5,7.1h-13.3l-3.5,16.9h12.6L221.8,169.7z"/>
		<path d="M256.7,174.5c2.2-10.3,4.8-21.8,6.4-28.3H263c-3.5,10.1-12.3,34.1-18.6,51.3h-7.3c1.2-15.2,2.9-40.9,3.8-51.4h-0.2
			c-1.3,6.8-4,19.5-6.1,29.6l-4.4,21.8H223l12.5-58.8h11.7c-1.2,17.7-2.2,35.2-3.1,43.1h0.1c2.6-7.9,10.7-29.3,16.3-43.1h11.5
			l-12.5,58.8h-7.6L256.7,174.5z"/>
	</g>
</g>
<g>
	<g>
		<path d="M-372.9,152.9c3.2,0,3.2-5,0-5C-376.1,147.9-376.1,152.9-372.9,152.9L-372.9,152.9z"/>
	</g>
</g>
</svg>
